REM DIRINDEX 1\2,1\3,1\4,1\5,1\6
REM DIRNAME cjc129,folder01,folder02,folder03,folder04,folder05
TITLE ""
FILE "DISC4Track20.mp3" MP3
  TRACK 01 AUDIO
    TITLE "0:"
    INDEX 01 00:00:00
  TRACK 02 AUDIO
    TITLE "3:cjc129_3437"
    INDEX 01 00:00:07
  TRACK 03 AUDIO
    TITLE "0:"
    INDEX 01 00:02:20
  TRACK 04 AUDIO
    TITLE "5:cjc129_3438"
    INDEX 01 00:02:53
  TRACK 05 AUDIO
    TITLE "0:"
    INDEX 01 00:05:16
  TRACK 06 AUDIO
    TITLE "4:cjc129_3439"
    INDEX 01 00:06:06
  TRACK 07 AUDIO
    TITLE "0:"
    INDEX 01 00:08:19
  TRACK 08 AUDIO
    TITLE "6:cjc129_3440"
    INDEX 01 00:08:52
  TRACK 09 AUDIO
    TITLE "0:"
    INDEX 01 00:13:28
  TRACK 10 AUDIO
    TITLE "3:cjc129_3441"
    INDEX 01 00:15:01
  TRACK 11 AUDIO
    TITLE "0:"
    INDEX 01 00:16:65
  TRACK 12 AUDIO
    TITLE "5:cjc129_3442"
    INDEX 01 00:17:21
  TRACK 13 AUDIO
    TITLE "0:"
    INDEX 01 00:19:44
  TRACK 14 AUDIO
    TITLE "4:cjc129_3443"
    INDEX 01 00:20:36
  TRACK 15 AUDIO
    TITLE "0:"
    INDEX 01 00:22:23
  TRACK 16 AUDIO
    TITLE "6:cjc129_3444"
    INDEX 01 00:22:56
  TRACK 17 AUDIO
    TITLE "0:"
    INDEX 01 00:27:10
  TRACK 18 AUDIO
    TITLE "3:cjc129_3445"
    INDEX 01 00:28:62
  TRACK 19 AUDIO
    TITLE "0:"
    INDEX 01 00:30:63
  TRACK 20 AUDIO
    TITLE "5:cjc129_3446"
    INDEX 01 00:31:22
  TRACK 21 AUDIO
    TITLE "0:"
    INDEX 01 00:34:38
  TRACK 22 AUDIO
    TITLE "4:cjc129_3447"
    INDEX 01 00:35:33
  TRACK 23 AUDIO
    TITLE "0:"
    INDEX 01 00:37:32
  TRACK 24 AUDIO
    TITLE "6:cjc129_3448"
    INDEX 01 00:37:67
  TRACK 25 AUDIO
    TITLE "0:"
    INDEX 01 00:43:11
  TRACK 26 AUDIO
    TITLE "3:cjc129_3449"
    INDEX 01 00:44:61
  TRACK 27 AUDIO
    TITLE "0:"
    INDEX 01 00:46:53
  TRACK 28 AUDIO
    TITLE "5:cjc129_3450"
    INDEX 01 00:47:11
  TRACK 29 AUDIO
    TITLE "0:"
    INDEX 01 00:49:31
  TRACK 30 AUDIO
    TITLE "4:cjc129_3451"
    INDEX 01 00:50:21
  TRACK 31 AUDIO
    TITLE "0:"
    INDEX 01 00:52:10
  TRACK 32 AUDIO
    TITLE "6:cjc129_3452"
    INDEX 01 00:52:47
  TRACK 33 AUDIO
    TITLE "0:"
    INDEX 01 00:56:31
  TRACK 34 AUDIO
    TITLE "3:cjc129_3453"
    INDEX 01 00:58:05
  TRACK 35 AUDIO
    TITLE "0:"
    INDEX 01 01:00:64
  TRACK 36 AUDIO
    TITLE "5:cjc129_3454"
    INDEX 01 01:01:17
  TRACK 37 AUDIO
    TITLE "0:"
    INDEX 01 01:04:23
  TRACK 38 AUDIO
    TITLE "4:cjc129_3455"
    INDEX 01 01:05:15
  TRACK 39 AUDIO
    TITLE "0:"
    INDEX 01 01:07:72
  TRACK 40 AUDIO
    TITLE "6:cjc129_3456"
    INDEX 01 01:08:31
  TRACK 41 AUDIO
    TITLE "0:"
    INDEX 01 01:14:02
  TRACK 42 AUDIO
    TITLE "3:cjc129_3457"
    INDEX 01 01:15:56
  TRACK 43 AUDIO
    TITLE "0:"
    INDEX 01 01:17:43
  TRACK 44 AUDIO
    TITLE "5:cjc129_3458"
    INDEX 01 01:18:00
  TRACK 45 AUDIO
    TITLE "0:"
    INDEX 01 01:21:25
  TRACK 46 AUDIO
    TITLE "4:cjc129_3459"
    INDEX 01 01:22:17
  TRACK 47 AUDIO
    TITLE "0:"
    INDEX 01 01:24:02
  TRACK 48 AUDIO
    TITLE "6:cjc129_3460"
    INDEX 01 01:24:36
  TRACK 49 AUDIO
    TITLE "0:"
    INDEX 01 01:27:32
  TRACK 50 AUDIO
    TITLE "3:cjc129_3461"
    INDEX 01 01:29:13
  TRACK 51 AUDIO
    TITLE "0:"
    INDEX 01 01:30:28
  TRACK 52 AUDIO
    TITLE "5:cjc129_3462"
    INDEX 01 01:30:60
  TRACK 53 AUDIO
    TITLE "0:"
    INDEX 01 01:35:39
  TRACK 54 AUDIO
    TITLE "4:cjc129_3463"
    INDEX 01 01:36:33
  TRACK 55 AUDIO
    TITLE "0:"
    INDEX 01 01:37:46
  TRACK 56 AUDIO
    TITLE "6:cjc129_3464"
    INDEX 01 01:38:08
  TRACK 57 AUDIO
    TITLE "0:"
    INDEX 01 01:42:45
  TRACK 58 AUDIO
    TITLE "3:cjc129_3465"
    INDEX 01 01:44:24
  TRACK 59 AUDIO
    TITLE "0:"
    INDEX 01 01:46:41
  TRACK 60 AUDIO
    TITLE "5:cjc129_3466"
    INDEX 01 01:46:72
  TRACK 61 AUDIO
    TITLE "0:"
    INDEX 01 01:52:44
  TRACK 62 AUDIO
    TITLE "4:cjc129_3467"
    INDEX 01 01:53:35
  TRACK 63 AUDIO
    TITLE "0:"
    INDEX 01 01:55:50
  TRACK 64 AUDIO
    TITLE "6:cjc129_3468"
    INDEX 01 01:56:10
  TRACK 65 AUDIO
    TITLE "0:"
    INDEX 01 02:00:55
